<svg xmlns="http://www.w3.org/2000/svg" width="149.89mm" height="149.89mm" fill-rule="evenodd" clip-rule="evenodd"
viewBox="0 0 14989 14989">
   <g>
    <path fill="#0C3B7C" d="M2657 0l9674 0c1462,0 2657,1157 2657,2629l0 9599c0,1472 -1196,2677 -2657,2677l-12331 0 0 -12276c0,-1472 1196,-2629 2657,-2629z"/>
    <g>
     <path fill="#00001B" d="M8061 7236c490,223 819,566 974,1053 310,974 0,2272 -1496,2684 -271,75 -548,112 -828,113 -829,3 -1658,-1 -2487,4 -118,1 -155,-27 -155,-151 4,-2126 2,-4253 4,-6379 0,-415 314,-765 715,-768 715,-5 1432,-35 2146,15 579,40 1105,236 1499,688 636,730 552,1922 -172,2565 -59,53 -119,105 -200,176zm2687 2150c495,0 895,401 895,895 0,495 -401,895 -895,895 -495,0 -895,-401 -895,-895 0,-495 401,-895 895,-895zm-5261 -371c0,-226 -2,-451 1,-677 4,-310 160,-463 470,-464 269,-1 537,-3 806,0 549,7 920,397 921,965 1,608 -348,995 -913,1004 -387,6 -774,-2 -1160,3 -97,1 -130,-21 -126,-123 8,-236 3,-473 3,-709zm0 -2998c0,-172 -1,-344 0,-516 1,-352 151,-504 498,-506 194,-1 387,-1 581,0 527,2 839,299 858,817 20,525 -292,897 -797,923 -349,18 -699,2 -1049,6 -89,1 -92,-44 -92,-110 2,-204 1,-409 1,-613z"/>
     <path fill="#FEFEFE" d="M8061 7186c490,223 819,566 974,1053 310,974 0,2272 -1496,2684 -271,75 -548,112 -828,113 -829,3 -1658,-1 -2487,4 -118,1 -155,-27 -155,-151 4,-2126 2,-4253 4,-6379 0,-415 314,-765 715,-768 716,-5 1432,-35 2147,15 579,40 1105,236 1499,688 636,730 552,1922 -172,2565 -59,53 -119,105 -200,176zm-2574 1779c0,-226 -2,-451 1,-677 4,-310 160,-463 470,-464 269,-1 537,-3 806,0 549,7 920,397 921,965 1,608 -348,995 -913,1004 -387,6 -774,-2 -1161,3 -97,1 -130,-21 -126,-123 8,-236 3,-473 3,-709zm0 -2998c0,-172 -1,-344 0,-516 1,-352 151,-504 498,-506 194,-1 387,-1 581,0 527,2 839,299 858,817 20,525 -292,897 -797,923 -349,18 -699,2 -1049,6 -89,1 -92,-44 -92,-110 2,-204 1,-409 1,-613z"/>
     <circle fill="#00AFF1" cx="10749" cy="10231" r="895"/>
    </g>
   </g>
</svg>
