<?xml version="1.0" encoding="utf-8"?><svg viewBox="0 0 566.513 566.513" xmlns="http://www.w3.org/2000/svg" xmlns:xlink="http://www.w3.org/1999/xlink"><style>:root>svg{display:none}:root>svg:target{display:block}</style><svg fill-rule="evenodd" clip-rule="evenodd" viewBox="0 0 14989 14989" id="bk" xmlns="http://www.w3.org/2000/svg"><path fill="#0C3B7C" d="M2657 0h9674c1462 0 2657 1157 2657 2629v9599c0 1472-1196 2677-2657 2677H0V2629C0 1157 1196 0 2657 0z"/><path fill="#00001B" d="M8061 7236c490 223 819 566 974 1053 310 974 0 2272-1496 2684-271 75-548 112-828 113-829 3-1658-1-2487 4-118 1-155-27-155-151 4-2126 2-4253 4-6379 0-415 314-765 715-768 715-5 1432-35 2146 15 579 40 1105 236 1499 688 636 730 552 1922-172 2565-59 53-119 105-200 176zm2687 2150c495 0 895 401 895 895 0 495-401 895-895 895-495 0-895-401-895-895 0-495 401-895 895-895zm-5261-371c0-226-2-451 1-677 4-310 160-463 470-464 269-1 537-3 806 0 549 7 920 397 921 965 1 608-348 995-913 1004-387 6-774-2-1160 3-97 1-130-21-126-123 8-236 3-473 3-709zm0-2998c0-172-1-344 0-516 1-352 151-504 498-506 194-1 387-1 581 0 527 2 839 299 858 817 20 525-292 897-797 923-349 18-699 2-1049 6-89 1-92-44-92-110 2-204 1-409 1-613z"/><path fill="#FEFEFE" d="M8061 7186c490 223 819 566 974 1053 310 974 0 2272-1496 2684-271 75-548 112-828 113-829 3-1658-1-2487 4-118 1-155-27-155-151 4-2126 2-4253 4-6379 0-415 314-765 715-768 716-5 1432-35 2147 15 579 40 1105 236 1499 688 636 730 552 1922-172 2565-59 53-119 105-200 176zM5487 8965c0-226-2-451 1-677 4-310 160-463 470-464 269-1 537-3 806 0 549 7 920 397 921 965 1 608-348 995-913 1004-387 6-774-2-1161 3-97 1-130-21-126-123 8-236 3-473 3-709zm0-2998c0-172-1-344 0-516 1-352 151-504 498-506 194-1 387-1 581 0 527 2 839 299 858 817 20 525-292 897-797 923-349 18-699 2-1049 6-89 1-92-44-92-110 2-204 1-409 1-613z"/><circle fill="#00AFF1" cx="10749" cy="10231" r="895"/></svg><svg viewBox="0 0 389.404 387.417" id="ok" xmlns="http://www.w3.org/2000/svg"><path fill="#F7931E" d="M387.404 329.317c0 30.989-25.122 56.11-56.111 56.11H58.11c-30.989 0-56.11-25.121-56.11-56.11V58.1C2 27.111 27.122 1.99 58.11 1.99h273.183c30.989 0 56.111 25.122 56.111 56.11v271.217z"/><path fill="#FFF" d="M194.485 57.901c-38.593 0-69.878 31.286-69.878 69.878 0 38.593 31.285 69.881 69.878 69.881s69.878-31.288 69.878-69.881c0-38.592-31.285-69.878-69.878-69.878zm0 98.766c-15.953 0-28.886-12.934-28.886-28.887s12.933-28.886 28.886-28.886 28.886 12.933 28.886 28.886-12.933 28.887-28.886 28.887zM219.155 253.262c27.975-5.699 44.739-18.947 45.626-19.658 8.186-6.565 9.501-18.523 2.936-26.71-6.564-8.186-18.521-9.501-26.709-2.937-.173.14-18.053 13.856-47.472 13.876-29.418-.02-47.676-13.736-47.849-13.876-8.188-6.564-20.145-5.249-26.709 2.937-6.565 8.187-5.25 20.145 2.936 26.71.899.721 18.355 14.314 47.114 19.879l-40.081 41.888c-7.284 7.554-7.065 19.582.489 26.866a18.936 18.936 0 0 0 13.187 5.322c4.978 0 9.951-1.945 13.679-5.812l37.235-39.665 40.996 39.922c7.428 7.416 19.456 7.404 26.87-.021 7.414-7.426 7.405-19.456-.021-26.87l-42.227-41.851z"/></svg><svg viewBox="0 0 192 192" id="vk" xmlns="http://www.w3.org/2000/svg"><g fill="none" fill-rule="evenodd"><path fill="#5181B8" d="M66.56 0h58.88C179.2 0 192 12.8 192 66.56v58.88c0 53.76-12.8 66.56-66.56 66.56H66.56C12.8 192 0 179.2 0 125.44V66.56C0 12.8 12.8 0 66.56 0z"/><path fill="#FFF" d="M157.234 66.146c.89-2.966 0-5.146-4.234-5.146h-14c-3.56 0-5.2 1.883-6.09 3.96 0 0-7.12 17.353-17.206 28.625-3.263 3.263-4.746 4.301-6.526 4.301-.89 0-2.178-1.038-2.178-4.004V66.146c0-3.56-1.033-5.146-4-5.146H81c-2.224 0-3.562 1.652-3.562 3.218 0 3.375 5.042 4.153 5.562 13.645V98.48c0 4.52-.816 5.34-2.596 5.34-4.746 0-16.29-17.432-23.138-37.377C55.924 62.566 54.578 61 51 61H37c-4 0-4.8 1.883-4.8 3.96 0 3.708 4.747 22.1 22.1 46.424C65.869 127.995 82.168 137 97 137c8.9 0 10-2 10-5.445V119c0-4 .843-4.798 3.661-4.798 2.077 0 5.636 1.038 13.943 9.047C134.096 132.742 135.66 137 141 137h14c4 0 6-2 4.846-5.947-1.262-3.934-5.794-9.64-11.808-16.406-3.263-3.857-8.158-8.01-9.64-10.086-2.077-2.67-1.484-3.857 0-6.23 0 0 17.056-24.027 18.836-32.185z"/></g></svg></svg>